<mxfile host="app.diagrams.net" modified="2023-06-15T08:27:28.689Z" agent="Mozilla/5.0 (Macintosh; Intel Mac OS X 10_15_7) AppleWebKit/537.36 (KHTML, like Gecko) Chrome/114.0.0.0 Safari/537.36" version="21.3.8" etag="TKqOhV0BBhWHFIS3PvWp" type="github">
  <diagram name="Page-1" id="Mw5EDIEJUwidYdBa6SzD">
    <mxGraphModel>
      <root>
        <mxCell id="0" />
        <mxCell id="1" parent="0" />
      </root>
    </mxGraphModel>
  </diagram>
</mxfile>
